<?xml version="1.0" encoding="utf-8"?>
<!-- Generator: Adobe Illustrator 19.1.0, SVG Export Plug-In . SVG Version: 6.00 Build 0)  -->
<svg version="1.1" id="Capa_1" xmlns="http://www.w3.org/2000/svg" xmlns:xlink="http://www.w3.org/1999/xlink" x="0px" y="0px"
	 viewBox="-291 383 28 28" style="enable-background:new -291 383 28 28;" xml:space="preserve">
<style type="text/css">
	.st0{fill:#FFFFFF;}
</style>
<g>
	<g id="c142_x">
		<path d="M-277,383c-7.7,0-14,6.3-14,14c0,7.7,6.3,14,14,14c7.7,0,14-6.3,14-14C-263,389.3-269.3,383-277,383z M-271,400.8
			l-2.2,2.2c0,0-3.5-3.8-3.8-3.8c-0.3,0-3.8,3.8-3.8,3.8l-2.2-2.2c0,0,3.8-3.5,3.8-3.8c0-0.3-3.8-3.8-3.8-3.8l2.2-2.2
			c0,0,3.6,3.8,3.8,3.8c0.2,0,3.8-3.8,3.8-3.8l2.2,2.2c0,0-3.8,3.5-3.8,3.8C-274.8,397.3-271,400.8-271,400.8z"/>
	</g>
	<g id="Capa_1_104_">
	</g>
</g>
<path class="st0" d="M-271,400.8l-2.2,2.2c0,0-3.5-3.8-3.8-3.8c-0.3,0-3.8,3.8-3.8,3.8l-2.2-2.2c0,0,3.8-3.5,3.8-3.8
	c0-0.3-3.8-3.8-3.8-3.8l2.2-2.2c0,0,3.6,3.8,3.8,3.8c0.2,0,3.8-3.8,3.8-3.8l2.2,2.2c0,0-3.8,3.5-3.8,3.8
	C-274.8,397.3-271,400.8-271,400.8z"/>
</svg>
