<?xml version="1.0" encoding="utf-8"?>
<!-- Generator: Adobe Illustrator 19.1.0, SVG Export Plug-In . SVG Version: 6.00 Build 0)  -->
<svg version="1.1" id="Layer_1" xmlns="http://www.w3.org/2000/svg" xmlns:xlink="http://www.w3.org/1999/xlink" x="0px" y="0px"
	 viewBox="-77 358.3 456.5 77.7" style="enable-background:new -77 358.3 456.5 77.7;" xml:space="preserve">
<style type="text/css">
	.st0{fill:#E21735;}
	.st1{fill:#020202;}
	.st2{stroke:#000000;stroke-width:0.5;stroke-miterlimit:10;}
</style>
<polygon class="st0" points="-53.6,358.3 -71,436 -35.8,377.8 -62.2,410 "/>
<polygon class="st1" points="-53.4,371.2 -39.4,436 -30,436 "/>
<g>
	<path class="st2" d="M-7.1,400.3c0,0.1,0,0.2-0.1,0.3c-0.1,0.1-0.2,0.1-0.3,0.1c-0.3,0-0.5-0.1-0.5-0.3v-4.8h-6.5v4.7
		c0,0.1,0,0.2-0.1,0.3c-0.1,0.1-0.2,0.1-0.3,0.1c-0.3,0-0.5-0.1-0.5-0.3v-9.2c0-0.1,0.1-0.2,0.2-0.3c0.1-0.1,0.2-0.1,0.3-0.1
		s0.2,0,0.3,0.1s0.1,0.1,0.1,0.2v3.7H-8v-3.7c0-0.1,0.1-0.2,0.2-0.3s0.2-0.1,0.3-0.1c0.1,0,0.2,0,0.3,0.1c0.1,0.1,0.1,0.1,0.1,0.2
		V400.3z"/>
	<path class="st2" d="M6.7,400.1c0,0.1,0,0.3-0.1,0.3c-0.1,0.1-0.2,0.1-0.4,0.1c-0.2,0-0.3-0.1-0.4-0.2l-2.2-4.6h-4l-2.5,4.6
		c0,0.1-0.2,0.2-0.4,0.2c-0.2,0-0.3,0-0.4-0.1s-0.1-0.2-0.1-0.4l2.6-4.8l0.1-0.1l2.5-4.6h0.7l2.1,4.6v0.1v0.1L6.7,400.1z M3.3,395.1
		l-1.5-3.2L0,395.1H3.3z"/>
	<path class="st2" d="M18.8,400c0.1,0.1,0.1,0.1,0.1,0.2s-0.1,0.2-0.2,0.3c-0.1,0.1-0.2,0.1-0.3,0.1c-0.1,0-0.2,0-0.3-0.1l-6.8-4.9
		v4.6c0,0.1,0,0.2-0.1,0.3c-0.1,0.1-0.2,0.1-0.3,0.1c-0.3,0-0.5-0.1-0.5-0.4v-7.8l-0.2,0.1c-0.1,0-0.1,0-0.2,0s-0.2,0-0.3-0.1
		c-0.1-0.1-0.1-0.2-0.1-0.3c0-0.1,0.1-0.2,0.2-0.3l0.6-0.2v-0.7c0-0.1,0-0.2,0.1-0.3c0.1-0.1,0.2-0.1,0.3-0.1c0.1,0,0.2,0,0.3,0.1
		c0.1,0.1,0.1,0.1,0.1,0.3v0.4c0.7-0.2,1.4-0.4,2.1-0.6c0.7-0.2,1.4-0.2,2-0.2s1,0.1,1.4,0.2s0.7,0.4,0.9,0.7
		c0.1,0.2,0.1,0.4,0.1,0.6c0,0.8-0.7,1.6-2,2.3s-2.6,1-3.9,1L18.8,400z M17.1,391.7c-0.1-0.2-0.3-0.4-0.5-0.4
		c-0.2-0.1-0.5-0.1-0.9-0.1c-0.6,0-1.3,0.1-2,0.3c-0.7,0.2-1.5,0.4-2.3,0.7v2.5c0.2,0,0.4,0,0.5,0c1.1,0,2.2-0.3,3.5-0.8
		c1.2-0.5,1.9-1.1,1.9-1.7C17.2,391.9,17.2,391.8,17.1,391.7z"/>
	<path class="st2" d="M24.6,391.1l-0.5,0.1v9.1l-0.9,0.2v-9.2l-0.5,0.1c-0.2,0-0.3,0-0.4-0.1s-0.1-0.2-0.1-0.3
		c0-0.2,0.1-0.3,0.3-0.3l1.9-0.4c0.2,0,0.3,0,0.4,0.1s0.1,0.2,0.1,0.3C25,391,24.9,391.1,24.6,391.1z M23.5,400.5l-0.7,0.2l1.9-0.5
		l-0.8,0.2L23.5,400.5z"/>
	<path class="st2" d="M36.4,391.2l-4,0.6v8.5c0,0.1,0,0.2-0.1,0.3c-0.1,0.1-0.2,0.1-0.3,0.1c-0.3,0-0.5-0.1-0.5-0.3v-8.3l-3.2,0.5
		c-0.1,0-0.3,0-0.3-0.1c-0.1-0.1-0.1-0.2-0.1-0.3c0-0.2,0.1-0.3,0.4-0.3l3.4-0.5c0.1,0,0.2-0.1,0.3-0.1c0.1,0,0.2,0,0.3,0l4.1-0.6
		c0.1,0,0.2,0,0.3,0.1s0.1,0.2,0.1,0.3C36.7,391.2,36.6,391.2,36.4,391.2z"/>
	<path class="st2" d="M48.2,400.3c0,0.1,0,0.2-0.1,0.3c-0.1,0.1-0.2,0.1-0.3,0.1c-0.3,0-0.5-0.1-0.5-0.3v-4.8h-6.5v4.7
		c0,0.1,0,0.2-0.1,0.3c-0.1,0.1-0.2,0.1-0.3,0.1c-0.3,0-0.5-0.1-0.5-0.3v-9.2c0-0.1,0.1-0.2,0.2-0.3s0.2-0.1,0.3-0.1
		c0.1,0,0.2,0,0.3,0.1c0.1,0.1,0.1,0.1,0.1,0.2v3.7h6.5v-3.7c0-0.1,0.1-0.2,0.2-0.3s0.2-0.1,0.3-0.1c0.1,0,0.2,0,0.3,0.1
		c0.1,0.1,0.1,0.1,0.1,0.2V400.3z"/>
	<path class="st2" d="M62,400.1c0,0.1,0,0.3-0.1,0.3c-0.1,0.1-0.2,0.1-0.4,0.1s-0.3-0.1-0.4-0.2l-2.2-4.6h-4l-2.5,4.6
		c0,0.1-0.2,0.2-0.4,0.2s-0.3,0-0.4-0.1s-0.1-0.2-0.1-0.4l2.6-4.8l0.1-0.1l2.5-4.6h0.7l2.1,4.6v0.1v0.1L62,400.1z M58.7,395.1
		l-1.5-3.2l-1.8,3.2H58.7z"/>
	<path class="st2" d="M76.9,400.3c0,0.2-0.1,0.3-0.4,0.3s-0.5-0.1-0.5-0.3v-7.7c-0.3,0.5-0.7,1-1.2,1.5s-1,1.1-1.6,1.6
		c-0.6,0.6-1.1,1.2-1.5,1.9c-0.4,0.7-0.6,1.6-0.6,2.5h-0.8c-0.2-0.9-0.4-1.6-0.6-2.2c-0.2-0.6-0.5-1.1-0.9-1.7
		c-0.4-0.5-0.7-1.1-1.1-1.7c-0.4-0.6-0.7-1.2-1-1.8v7.6c0,0.1,0,0.2-0.1,0.3c-0.1,0.1-0.2,0.1-0.3,0.1c-0.3,0-0.5-0.1-0.5-0.3V391
		l0.8-0.1c0.1,0.3,0.3,0.6,0.5,1s0.5,1,1,1.8c0.5,0.8,0.9,1.5,1.3,2c0.4,0.5,0.6,1,0.8,1.3c0.2,0.3,0.3,0.7,0.4,1.1
		c0.2-0.5,0.5-1,0.8-1.5c0.3-0.4,0.8-0.9,1.3-1.5c0.6-0.5,1.1-1.1,1.6-1.8s0.9-1.2,1.1-1.6c0.2-0.4,0.4-0.7,0.5-0.9l0.8,0.1v9.4
		H76.9z"/>
	<path class="st2" d="M90.3,395.2c0,1.3-0.6,2.5-1.8,3.7c-1.2,1.2-2.4,1.8-3.7,1.8c-0.2,0-0.6-0.1-1.3-0.2c-0.7-0.1-1.3-0.6-1.9-1.4
		c-0.6-0.8-0.9-1.7-0.9-2.7c0-1.3,0.6-2.6,1.8-3.9c1.2-1.3,2.5-2,3.8-2c0.2,0,0.6,0.1,1.3,0.2s1.3,0.6,1.8,1.3
		C90,392.7,90.3,393.7,90.3,395.2z M89.4,395.2c0-1.3-0.2-2.2-0.6-2.8c-0.4-0.6-0.9-1-1.5-1.1s-0.9-0.2-1.1-0.2
		c-1,0-2.1,0.6-3.1,1.8c-1,1.2-1.5,2.3-1.5,3.4c0,0.9,0.2,1.7,0.7,2.4c0.5,0.7,1,1,1.5,1.1c0.6,0.1,0.9,0.2,1.1,0.2c1,0,2-0.5,3-1.6
		C88.9,397.3,89.4,396.3,89.4,395.2z"/>
	<path class="st2" d="M101.6,391.2l-4,0.6v8.5c0,0.1,0,0.2-0.1,0.3c-0.1,0.1-0.2,0.1-0.3,0.1c-0.3,0-0.5-0.1-0.5-0.3v-8.3l-3.2,0.5
		c-0.1,0-0.3,0-0.3-0.1c-0.1-0.1-0.1-0.2-0.1-0.3c0-0.2,0.1-0.3,0.4-0.3l3.4-0.5c0.1,0,0.2-0.1,0.3-0.1s0.2,0,0.3,0l4.1-0.6
		c0.1,0,0.2,0,0.3,0.1s0.1,0.2,0.1,0.3C101.9,391.2,101.8,391.2,101.6,391.2z"/>
	<path class="st2" d="M113.4,400.3c0,0.1,0,0.2-0.1,0.3c-0.1,0.1-0.2,0.1-0.3,0.1c-0.3,0-0.5-0.1-0.5-0.3v-4.8H106v4.7
		c0,0.1,0,0.2-0.1,0.3c-0.1,0.1-0.2,0.1-0.3,0.1c-0.3,0-0.5-0.1-0.5-0.3v-9.2c0-0.1,0.1-0.2,0.2-0.3c0.1-0.1,0.2-0.1,0.3-0.1
		s0.2,0,0.3,0.1s0.1,0.1,0.1,0.2v3.7h6.5v-3.7c0-0.1,0.1-0.2,0.2-0.3c0.1-0.1,0.2-0.1,0.3-0.1s0.2,0,0.3,0.1s0.1,0.1,0.1,0.2V400.3z
		"/>
	<path class="st2" d="M127.2,400.1c0,0.1,0,0.3-0.1,0.3c-0.1,0.1-0.2,0.1-0.4,0.1s-0.3-0.1-0.4-0.2l-2.2-4.6h-4l-2.5,4.6
		c0,0.1-0.2,0.2-0.4,0.2s-0.3,0-0.4-0.1s-0.1-0.2-0.1-0.4l2.6-4.8l0.1-0.1l2.5-4.6h0.7l2.1,4.6v0.1v0.1L127.2,400.1z M123.9,395.1
		l-1.5-3.2l-1.8,3.2H123.9z"/>
	<path class="st2" d="M139.3,400c0.1,0.1,0.1,0.1,0.1,0.2s-0.1,0.2-0.2,0.3c-0.1,0.1-0.2,0.1-0.3,0.1s-0.2,0-0.3-0.1l-6.8-4.9v4.6
		c0,0.1,0,0.2-0.1,0.3c-0.1,0.1-0.2,0.1-0.3,0.1c-0.3,0-0.5-0.1-0.5-0.4v-7.8l-0.2,0.1c-0.1,0-0.1,0-0.2,0c-0.1,0-0.2,0-0.3-0.1
		c-0.1-0.1-0.1-0.2-0.1-0.3c0-0.1,0.1-0.2,0.2-0.3l0.6-0.2v-0.7c0-0.1,0-0.2,0.1-0.3c0.1-0.1,0.2-0.1,0.3-0.1s0.2,0,0.3,0.1
		c0.1,0.1,0.1,0.1,0.1,0.3v0.4c0.7-0.2,1.4-0.4,2.1-0.6c0.7-0.2,1.4-0.2,2-0.2s1,0.1,1.4,0.2s0.7,0.4,0.9,0.7
		c0.1,0.2,0.1,0.4,0.1,0.6c0,0.8-0.7,1.6-2,2.3s-2.6,1-3.9,1L139.3,400z M137.6,391.7c-0.1-0.2-0.3-0.4-0.5-0.4
		c-0.2-0.1-0.5-0.1-0.9-0.1c-0.6,0-1.3,0.1-2,0.3c-0.7,0.2-1.5,0.4-2.3,0.7v2.5c0.2,0,0.4,0,0.5,0c1.1,0,2.2-0.3,3.5-0.8
		c1.2-0.5,1.9-1.1,1.9-1.7C137.8,391.9,137.7,391.8,137.6,391.7z"/>
	<path class="st2" d="M159.3,393.1c0.1,0.4,0.2,0.8,0.2,1.1c0,1.2-0.6,2.3-1.9,3.2c-1.2,1-2.6,1.7-4,2.3s-2.3,0.9-2.5,0.9l-0.5-0.3
		v-9.2c0-0.1,0-0.2,0.1-0.3s0.2-0.1,0.3-0.1s0.2,0,0.3,0.1s0.1,0.1,0.1,0.3v-0.2c0.4-0.2,0.9-0.3,1.6-0.5c0.6-0.2,1.2-0.2,1.9-0.2
		c1,0,1.8,0.2,2.6,0.6C158.3,391.3,158.9,392,159.3,393.1z M158.4,393.2c-0.3-0.8-0.8-1.4-1.4-1.8c-0.6-0.3-1.3-0.5-2.1-0.5
		c-0.6,0-1.2,0.1-1.8,0.2c-0.6,0.2-1.1,0.3-1.6,0.5v8c0.9-0.3,1.9-0.7,3-1.2c1-0.5,2-1.1,2.8-1.9c0.8-0.7,1.3-1.6,1.3-2.4
		C158.6,393.9,158.6,393.5,158.4,393.2z"/>
	<path class="st2" d="M171.2,400l-7.3,0.6l-0.4-0.3v-8.4h-0.4c-0.1,0-0.2,0-0.3-0.1s-0.1-0.2-0.1-0.3c0-0.2,0.1-0.3,0.4-0.3h0.4V391
		c0-0.1,0-0.2,0.1-0.2c0.1-0.1,0.2-0.1,0.3-0.1s0.2,0,0.3,0.1c0.1,0,0.1,0.1,0.1,0.2v0.1l6.1-0.5c0.1,0,0.2,0,0.3,0.1
		s0.1,0.2,0.1,0.2c0,0.2-0.1,0.3-0.4,0.3l-6.2,0.5v2.9l5.4-0.3c0.1,0,0.2,0,0.3,0.1s0.1,0.2,0.1,0.3c0,0.2-0.1,0.3-0.4,0.3l-5.5,0.3
		v4.4l6.8-0.5c0.1,0,0.2,0,0.3,0.1s0.1,0.2,0.1,0.2C171.6,399.9,171.5,400,171.2,400z"/>
	<path class="st2" d="M184,391.6c0.1,0.1,0.1,0.1,0.1,0.2s0,0.2-0.1,0.2c-0.1,0.1-0.2,0.1-0.4,0.1c-0.1,0-0.2,0-0.3-0.1
		c-0.3-0.3-0.7-0.5-1-0.6s-0.7-0.2-1.1-0.2c-0.2,0-0.3,0-0.5,0s-0.6,0.1-1.2,0.2s-1.3,0.4-1.9,0.9c-0.6,0.5-1,1-1,1.5
		c0,0.3,0.1,0.6,0.4,0.8c0.3,0.2,0.7,0.3,1.3,0.3c0.3,0,0.6,0,0.8-0.1c0.3,0,0.7-0.2,1.3-0.4c0.6-0.2,1.3-0.3,2.1-0.3
		c0.9,0,1.6,0.2,2.1,0.6s0.8,0.9,0.8,1.6c0,0.6-0.3,1.3-0.8,1.9s-1.2,1.1-1.9,1.4c-0.7,0.3-1.4,0.5-1.9,0.6s-1,0.2-1.5,0.2
		c-1.1,0-2-0.2-2.7-0.6s-1.1-0.9-1.1-1.6c0-0.1,0-0.2,0.1-0.3s0.2-0.1,0.3-0.1s0.2,0,0.3,0.1s0.1,0.1,0.1,0.3c0,0.4,0.3,0.8,0.8,1.1
		c0.6,0.3,1.2,0.5,2,0.5c0.4,0,0.9,0,1.3-0.1c0.4-0.1,0.9-0.3,1.6-0.6c0.6-0.3,1.2-0.7,1.6-1.2s0.7-1,0.7-1.5c0-0.4-0.2-0.8-0.5-1.1
		c-0.4-0.3-0.9-0.4-1.5-0.4c-0.5,0-1.2,0.1-2,0.4c-0.8,0.3-1.6,0.4-2.3,0.4c-0.8,0-1.4-0.2-1.9-0.5c-0.4-0.3-0.7-0.8-0.7-1.3
		c0-0.7,0.4-1.4,1.2-2s1.6-1,2.5-1.1c0.8-0.1,1.3-0.1,1.5-0.2c0.2,0,0.4,0,0.6,0c0.5,0,1,0.1,1.4,0.2
		C183.1,391,183.6,391.3,184,391.6z"/>
	<path class="st2" d="M191.3,391.1l-0.5,0.1v9.1l-0.9,0.2v-9.2l-0.5,0.1c-0.2,0-0.3,0-0.4-0.1s-0.1-0.2-0.1-0.3
		c0-0.2,0.1-0.3,0.3-0.3l1.9-0.4c0.2,0,0.3,0,0.4,0.1s0.1,0.2,0.1,0.3C191.7,391,191.6,391.1,191.3,391.1z M190.2,400.5l-0.7,0.2
		l1.9-0.5l-0.8,0.2L190.2,400.5z"/>
	<path class="st2" d="M206.7,395.1c0,0.1,0,0.2,0,0.3s0,0.2,0,0.2c0,0.6-0.1,1.1-0.4,1.7s-0.8,1.2-1.7,1.8c-0.9,0.6-1.8,1-2.7,1.2
		c-1,0.2-1.7,0.3-2.1,0.3c-1.3,0-2.5-0.4-3.5-1.1c-1-0.7-1.5-1.7-1.5-3c0-1.8,0.7-3.3,2.2-4.5c1.5-1.1,3.1-1.7,4.9-1.7
		c0.8,0,1.6,0.1,2.3,0.4c0.7,0.3,1.2,0.5,1.5,0.9c0.3,0.3,0.4,0.5,0.4,0.6s0,0.2-0.1,0.2c-0.1,0.1-0.2,0.1-0.3,0.1
		c-0.2,0-0.4-0.2-0.9-0.7c-0.4-0.5-1.4-0.7-2.8-0.7c-1.6,0-3,0.5-4.3,1.5s-1.9,2.4-1.9,4c0,1,0.4,1.9,1.2,2.5
		c0.8,0.6,1.7,0.9,2.8,0.9c0.3,0,1.1-0.1,2.3-0.4c1.2-0.3,2.1-0.8,2.8-1.6c0.7-0.8,1-1.6,1-2.3l-4.6,0.8c-0.2,0-0.3,0-0.4-0.1
		s-0.1-0.2-0.1-0.3c0-0.2,0.1-0.3,0.3-0.3l5.2-0.9L206.7,395.1z"/>
	<path class="st2" d="M219,400.4l-0.8,0.1c-0.3-0.9-0.7-1.8-1.4-2.5c-0.7-0.7-1.3-1.5-2.1-2.3c-0.8-0.7-1.3-1.2-1.5-1.6
		c-0.2-0.3-0.7-0.9-1.4-1.9v8c0,0.1,0,0.2-0.1,0.3c-0.1,0.1-0.2,0.1-0.3,0.1c-0.3,0-0.5-0.1-0.5-0.3v-9.4l0.7-0.2
		c0.7,0.9,1.2,1.7,1.7,2.4c0.5,0.6,1.1,1.3,1.8,2c0.7,0.7,1.3,1.3,1.8,1.8s0.9,1,1.3,1.6v-7.3c0-0.1,0.1-0.2,0.2-0.3
		s0.2-0.1,0.3-0.1c0.3,0,0.4,0.1,0.4,0.3v9.3H219z"/>
	<path class="st2" d="M237.9,392.1c0,0.1,0,0.2-0.1,0.3s-0.2,0.1-0.4,0.1c-0.2,0-0.3-0.1-0.4-0.2c-0.2-0.4-0.5-0.7-0.9-0.9
		c-0.4-0.2-0.9-0.3-1.3-0.3c-0.1,0-0.2,0-0.2,0c-1.3,0.1-2.5,0.6-3.4,1.5c-1,0.9-1.4,2.1-1.4,3.6c0,1.1,0.2,1.9,0.7,2.7
		c0.5,0.7,1.2,1.1,2.2,1.1c0.8,0,1.6-0.2,2.4-0.7s1.3-0.9,1.6-1.3c0.3-0.4,0.5-0.6,0.5-0.6c0.1,0,0.1-0.1,0.2-0.1s0.2,0,0.3,0.1
		c0.1,0.1,0.1,0.1,0.1,0.2s-0.2,0.3-0.5,0.8c-0.3,0.4-1,0.9-1.9,1.4s-1.9,0.8-2.8,0.8c-1.3,0-2.3-0.4-2.9-1.3s-0.9-1.9-0.9-3.1
		c0-1.7,0.6-3,1.7-4s2.1-1.6,2.9-1.6c0.8-0.1,1.3-0.1,1.4-0.1c0.6,0,1.2,0.1,1.8,0.4C237.3,391.1,237.7,391.5,237.9,392.1z"/>
	<path class="st2" d="M250.9,395.2c0,1.3-0.6,2.5-1.8,3.7c-1.2,1.2-2.4,1.8-3.7,1.8c-0.2,0-0.6-0.1-1.3-0.2
		c-0.7-0.1-1.3-0.6-1.9-1.4c-0.6-0.8-0.9-1.7-0.9-2.7c0-1.3,0.6-2.6,1.8-3.9c1.2-1.3,2.5-2,3.8-2c0.2,0,0.6,0.1,1.3,0.2
		c0.7,0.1,1.3,0.6,1.8,1.3C250.6,392.7,250.9,393.7,250.9,395.2z M250,395.2c0-1.3-0.2-2.2-0.6-2.8s-0.9-1-1.5-1.1s-0.9-0.2-1.1-0.2
		c-1,0-2.1,0.6-3.1,1.8c-1,1.2-1.5,2.3-1.5,3.4c0,0.9,0.2,1.7,0.7,2.4c0.5,0.7,1,1,1.5,1.1c0.6,0.1,0.9,0.2,1.1,0.2c1,0,2-0.5,3-1.6
		S250,396.3,250,395.2z"/>
	<path class="st2" d="M262.9,400.4l-0.8,0.1c-0.3-0.9-0.7-1.8-1.4-2.5c-0.7-0.7-1.3-1.5-2.1-2.3c-0.8-0.7-1.3-1.2-1.5-1.6
		c-0.2-0.3-0.7-0.9-1.4-1.9v8c0,0.1,0,0.2-0.1,0.3c-0.1,0.1-0.2,0.1-0.3,0.1c-0.3,0-0.5-0.1-0.5-0.3v-9.4l0.7-0.2
		c0.7,0.9,1.2,1.7,1.7,2.4c0.5,0.6,1.1,1.3,1.8,2c0.7,0.7,1.3,1.3,1.8,1.8s0.9,1,1.3,1.6v-7.3c0-0.1,0.1-0.2,0.2-0.3
		s0.2-0.1,0.3-0.1c0.3,0,0.4,0.1,0.4,0.3v9.3H262.9z"/>
	<path class="st2" d="M275.4,391.6c0.1,0.1,0.1,0.1,0.1,0.2s0,0.2-0.1,0.2c-0.1,0.1-0.2,0.1-0.4,0.1c-0.1,0-0.2,0-0.3-0.1
		c-0.3-0.3-0.7-0.5-1-0.6s-0.7-0.2-1.1-0.2c-0.2,0-0.3,0-0.5,0s-0.6,0.1-1.2,0.2s-1.3,0.4-1.9,0.9s-1,1-1,1.5c0,0.3,0.1,0.6,0.4,0.8
		c0.3,0.2,0.7,0.3,1.3,0.3c0.3,0,0.6,0,0.8-0.1c0.3,0,0.7-0.2,1.3-0.4c0.6-0.2,1.3-0.3,2.1-0.3c0.9,0,1.6,0.2,2.1,0.6
		s0.8,0.9,0.8,1.6c0,0.6-0.3,1.3-0.8,1.9s-1.2,1.1-1.9,1.4c-0.7,0.3-1.4,0.5-1.9,0.6s-1,0.2-1.5,0.2c-1.1,0-2-0.2-2.7-0.6
		s-1.1-0.9-1.1-1.6c0-0.1,0-0.2,0.1-0.3s0.2-0.1,0.3-0.1c0.1,0,0.2,0,0.3,0.1c0.1,0.1,0.1,0.1,0.1,0.3c0,0.4,0.3,0.8,0.8,1.1
		c0.6,0.3,1.2,0.5,2,0.5c0.4,0,0.9,0,1.3-0.1c0.4-0.1,0.9-0.3,1.6-0.6c0.6-0.3,1.2-0.7,1.6-1.2s0.7-1,0.7-1.5c0-0.4-0.2-0.8-0.5-1.1
		c-0.4-0.3-0.9-0.4-1.5-0.4c-0.5,0-1.2,0.1-2,0.4c-0.8,0.3-1.6,0.4-2.3,0.4c-0.8,0-1.4-0.2-1.9-0.5c-0.4-0.3-0.7-0.8-0.7-1.3
		c0-0.7,0.4-1.4,1.2-2c0.8-0.6,1.6-1,2.5-1.1c0.8-0.1,1.3-0.1,1.5-0.2c0.2,0,0.4,0,0.6,0c0.5,0,1,0.1,1.4,0.2
		C274.6,391,275,391.3,275.4,391.6z"/>
	<path class="st2" d="M289.3,396.7c0,1-0.5,1.9-1.6,2.7c-1,0.8-2.1,1.2-3.1,1.2c-1.3,0-2.2-0.3-2.7-0.8s-0.7-1.3-0.7-2.2v-6.7
		c0-0.1,0.1-0.2,0.2-0.3c0.1-0.1,0.2-0.1,0.3-0.1c0.1,0,0.2,0,0.3,0.1c0.1,0.1,0.1,0.1,0.1,0.2v6.7c0,0.8,0.2,1.3,0.5,1.7
		c0.3,0.4,1,0.6,2,0.6c0.8,0,1.6-0.3,2.5-1s1.3-1.4,1.3-2.2v-5.7c0-0.1,0-0.2,0.1-0.3c0.1-0.1,0.2-0.1,0.3-0.1c0.1,0,0.2,0,0.3,0.1
		c0.1,0.1,0.1,0.1,0.1,0.2v5.9H289.3z"/>
	<path class="st2" d="M299.5,400l-5.3,0.6l-0.4-0.3v-9.5c0-0.1,0-0.2,0.1-0.2c0.1-0.1,0.2-0.1,0.3-0.1c0.1,0,0.2,0,0.3,0.1
		c0.1,0.1,0.1,0.1,0.1,0.2v9l4.7-0.5c0.1,0,0.3,0,0.3,0.1c0.1,0.1,0.1,0.2,0.1,0.3C299.9,399.9,299.8,400,299.5,400z"/>
	<path class="st2" d="M311.5,391.2l-4,0.6v8.5c0,0.1,0,0.2-0.1,0.3c-0.1,0.1-0.2,0.1-0.3,0.1c-0.3,0-0.5-0.1-0.5-0.3v-8.3l-3.2,0.5
		c-0.1,0-0.3,0-0.3-0.1c-0.1-0.1-0.1-0.2-0.1-0.3c0-0.2,0.1-0.3,0.4-0.3l3.4-0.5c0.1,0,0.2-0.1,0.3-0.1c0.1,0,0.2,0,0.3,0l4.1-0.6
		c0.1,0,0.2,0,0.3,0.1s0.1,0.2,0.1,0.3C311.8,391.2,311.7,391.2,311.5,391.2z"/>
	<path class="st2" d="M325.4,400.1c0,0.1,0,0.3-0.1,0.3c-0.1,0.1-0.2,0.1-0.4,0.1c-0.2,0-0.3-0.1-0.4-0.2l-2.2-4.6h-4l-2.5,4.6
		c0,0.1-0.2,0.2-0.4,0.2c-0.2,0-0.3,0-0.4-0.1s-0.1-0.2-0.1-0.4l2.6-4.8l0.1-0.1l2.5-4.6h0.7l2.1,4.6v0.1v0.1L325.4,400.1z
		 M322.1,395.1l-1.5-3.2l-1.8,3.2H322.1z"/>
	<path class="st2" d="M337.4,400.4l-0.8,0.1c-0.3-0.9-0.7-1.8-1.4-2.5c-0.7-0.7-1.3-1.5-2.1-2.3c-0.8-0.7-1.3-1.2-1.5-1.6
		c-0.2-0.3-0.7-0.9-1.4-1.9v8c0,0.1,0,0.2-0.1,0.3c-0.1,0.1-0.2,0.1-0.3,0.1c-0.3,0-0.5-0.1-0.5-0.3v-9.4l0.7-0.2
		c0.7,0.9,1.2,1.7,1.7,2.4c0.5,0.6,1.1,1.3,1.8,2c0.7,0.7,1.3,1.3,1.8,1.8s0.9,1,1.3,1.6v-7.3c0-0.1,0.1-0.2,0.2-0.3
		s0.2-0.1,0.3-0.1c0.3,0,0.4,0.1,0.4,0.3v9.3H337.4z"/>
	<path class="st2" d="M349.4,392.1c0,0.1,0,0.2-0.1,0.3s-0.2,0.1-0.4,0.1c-0.2,0-0.3-0.1-0.4-0.2c-0.2-0.4-0.5-0.7-0.9-0.9
		c-0.4-0.2-0.9-0.3-1.3-0.3c-0.1,0-0.2,0-0.2,0c-1.3,0.1-2.5,0.6-3.4,1.5c-1,0.9-1.4,2.1-1.4,3.6c0,1.1,0.2,1.9,0.7,2.7
		c0.5,0.7,1.2,1.1,2.2,1.1c0.8,0,1.6-0.2,2.4-0.7s1.3-0.9,1.6-1.3c0.3-0.4,0.5-0.6,0.5-0.6c0.1,0,0.1-0.1,0.2-0.1s0.2,0,0.3,0.1
		c0.1,0.1,0.1,0.1,0.1,0.2s-0.2,0.3-0.5,0.8c-0.3,0.4-1,0.9-1.9,1.4s-1.9,0.8-2.8,0.8c-1.3,0-2.3-0.4-2.9-1.3s-0.9-1.9-0.9-3.1
		c0-1.7,0.6-3,1.7-4s2.1-1.6,2.9-1.6c0.8-0.1,1.3-0.1,1.4-0.1c0.6,0,1.2,0.1,1.8,0.4C348.8,391.1,349.2,391.5,349.4,392.1z"/>
	<path class="st2" d="M363.4,391.2l-4.9,3.8v5.3c0,0.1,0,0.2-0.1,0.3c-0.1,0.1-0.2,0.1-0.3,0.1c-0.3,0-0.5-0.1-0.5-0.3v-5.3
		l-5.1-3.8c-0.1-0.1-0.1-0.2-0.1-0.2s0-0.2,0.1-0.3s0.2-0.1,0.3-0.1s0.2,0,0.3,0.1l4.9,3.7l4.8-3.6c0.1-0.1,0.2-0.1,0.3-0.1
		c0.1,0,0.2,0,0.3,0.1c0.1,0.1,0.1,0.2,0.1,0.2S363.5,391.2,363.4,391.2z"/>
</g>
<g>
	<g>
		<path class="st0" d="M-10,413l-0.1,1.2c-0.5,0.1-1,0.2-1.6,0.2c-1.3,0-2.2-0.3-2.9-1c-0.7-0.7-1-1.4-1-2.4s0.4-1.8,1.1-2.5
			c0.7-0.7,1.7-1.1,2.9-1.1c0.5,0,0.9,0,1.3,0.1l-0.2,1.2c-0.4-0.1-0.9-0.2-1.3-0.2c-0.8,0-1.3,0.2-1.7,0.7c-0.4,0.4-0.5,1-0.5,1.6
			s0.2,1.2,0.7,1.7c0.4,0.5,1,0.7,1.8,0.7C-11.1,413.2-10.6,413.2-10,413z"/>
		<path class="st0" d="M3.7,414.2H2.1c0-1.1,0.1-2.1,0.1-3h-2.8c0,0.8,0,1.7,0.1,3h-1.6c0-1.1,0.1-2.3,0.1-3.5c0-1.2,0-2.3-0.1-3.2
			h1.6c0,1-0.1,1.9-0.1,2.7h2.8c0-0.7,0-1.6-0.1-2.7h1.6c-0.1,0.9-0.1,1.9-0.1,3.2C3.6,412,3.6,413.2,3.7,414.2z"/>
		<path class="st0" d="M18.4,414.2h-1.8c0-0.2-0.2-0.9-0.5-1.9h-2.6c-0.3,1-0.5,1.7-0.5,1.9h-1.7c0-0.1,0.4-1.2,1.3-3.3
			s1.3-3.2,1.3-3.4H16c0,0.2,0.4,1.3,1.2,3.4S18.4,414.1,18.4,414.2z M15.8,411.3c-0.6-1.8-0.9-2.7-0.9-2.9h-0.1
			c0,0.1-0.3,1.1-1,2.9H15.8z"/>
		<path class="st0" d="M31.9,414.2h-1.6c-0.4-1.2-0.8-2-1-2.3c-0.2-0.3-0.6-0.4-1.1-0.4c-0.2,0-0.4,0-0.6,0c0,0.9,0,1.8,0,2.7H26
			c0-1,0.1-2.2,0.1-3.5c0-1.3,0-2.3-0.1-3.2h1c0.1,0,0.3,0,0.7,0s0.7,0,1,0c1.7,0,2.5,0.5,2.5,1.6c0,0.9-0.5,1.5-1.5,1.8v0.1
			c0.4,0.1,0.7,0.4,1,0.8S31.4,413.1,31.9,414.2z M29.8,409.5c0-0.7-0.5-1-1.4-1c-0.3,0-0.7,0-0.9,0.1c0,0.5,0.1,1.2,0.1,2.1
			c0.2,0,0.4,0,0.5,0C29.2,410.6,29.8,410.3,29.8,409.5z"/>
		<path class="st0" d="M44.6,407.5v1.1c-0.7-0.1-1.4-0.1-2.1-0.1c0,0.7,0,1.4,0,2.2c0,1.2,0,2.4,0.1,3.5H41c0-1.1,0.1-2.3,0.1-3.5
			c0-0.8,0-1.5,0-2.2c-0.5,0-1.2,0-2.1,0.1v-1.1H44.6z"/>
		<path class="st0" d="M57.1,413.1v1.1h-4.7c0-1,0.1-2.2,0.1-3.5c0-1.3,0-2.3-0.1-3.2h4.5l-0.1,1.1c-1.1-0.1-2.1-0.1-3-0.1
			c0,0.5,0.1,1,0.1,1.7c0.8,0,1.6,0,2.5-0.1v1.2c-0.9,0-1.7-0.1-2.5-0.1c0,0.7,0,1.4,0,2C54.9,413.2,56,413.2,57.1,413.1z"/>
		<path class="st0" d="M71,414.2h-1.6c-0.4-1.2-0.8-2-1-2.3c-0.2-0.3-0.6-0.4-1.1-0.4c-0.2,0-0.4,0-0.6,0c0,0.9,0,1.8,0,2.7h-1.5
			c0-1,0.1-2.2,0.1-3.5c0-1.3,0-2.3-0.1-3.2h1c0.1,0,0.3,0,0.7,0s0.7,0,1,0c1.7,0,2.5,0.5,2.5,1.6c0,0.9-0.5,1.5-1.5,1.8v0.1
			c0.4,0.1,0.7,0.4,1,0.8C70.1,412.2,70.5,413.1,71,414.2z M68.9,409.5c0-0.7-0.5-1-1.4-1c-0.3,0-0.7,0-0.9,0.1
			c0,0.5,0.1,1.2,0.1,2.1c0.2,0,0.4,0,0.5,0C68.3,410.6,68.9,410.3,68.9,409.5z"/>
		<path class="st0" d="M83.5,413.1v1.1h-4.7c0-1,0.1-2.2,0.1-3.5c0-1.3,0-2.3-0.1-3.2h4.5l-0.1,1.1c-1.1-0.1-2.1-0.1-3-0.1
			c0,0.5,0.1,1,0.1,1.7c0.8,0,1.6,0,2.5-0.1v1.2c-0.9,0-1.7-0.1-2.5-0.1c0,0.7,0,1.4,0,2C81.3,413.2,82.3,413.2,83.5,413.1z"/>
		<path class="st0" d="M97.6,410.6c0,1-0.3,1.8-1,2.6c-0.7,0.7-1.6,1.1-2.8,1.1c-0.5,0-1.3,0-2.3-0.1c0-1,0.1-2.2,0.1-3.5
			c0-1.3,0-2.3-0.1-3.2h1c0.2,0,0.4,0,0.7,0s0.5,0,0.6,0c1.3,0,2.3,0.3,2.9,0.9C97.3,409,97.6,409.8,97.6,410.6z M96.1,410.9
			c0-0.7-0.2-1.2-0.6-1.7c-0.4-0.5-1-0.7-1.9-0.7c-0.2,0-0.4,0-0.7,0c0,0.7,0.1,1.4,0.1,2.2c0,0.8,0,1.6,0.1,2.4
			c0.2,0,0.5,0.1,0.7,0.1c0.8,0,1.4-0.2,1.8-0.7C95.9,412.1,96.1,411.5,96.1,410.9z"/>
		<path class="st0" d="M122.1,414.2h-1.8c0-0.2-0.2-0.9-0.5-1.9h-2.6c-0.3,1-0.5,1.7-0.5,1.9H115c0-0.1,0.4-1.2,1.3-3.3
			s1.3-3.2,1.3-3.4h2.1c0,0.2,0.4,1.3,1.2,3.4S122.1,414.1,122.1,414.2z M119.5,411.3c-0.6-1.8-0.9-2.7-0.9-2.9h-0.1
			c0,0.1-0.3,1.1-1,2.9H119.5z"/>
		<path class="st0" d="M135.6,414.2H134c-0.4-1.2-0.8-2-1-2.3c-0.2-0.3-0.6-0.4-1.1-0.4c-0.2,0-0.4,0-0.6,0c0,0.9,0,1.8,0,2.7h-1.5
			c0-1,0.1-2.2,0.1-3.5c0-1.3,0-2.3-0.1-3.2h1c0.1,0,0.3,0,0.7,0s0.7,0,1,0c1.7,0,2.5,0.5,2.5,1.6c0,0.9-0.5,1.5-1.5,1.8v0.1
			c0.4,0.1,0.7,0.4,1,0.8C134.7,412.2,135.1,413.1,135.6,414.2z M133.5,409.5c0-0.7-0.5-1-1.4-1c-0.3,0-0.7,0-0.9,0.1
			c0,0.5,0.1,1.2,0.1,2.1c0.2,0,0.4,0,0.5,0C132.9,410.6,133.5,410.3,133.5,409.5z"/>
		<path class="st0" d="M148.5,413l-0.1,1.2c-0.5,0.1-1,0.2-1.6,0.2c-1.3,0-2.2-0.3-2.9-1c-0.7-0.7-1-1.4-1-2.4s0.4-1.8,1.1-2.5
			c0.7-0.7,1.7-1.1,2.9-1.1c0.5,0,0.9,0,1.3,0.1l-0.2,1.2c-0.4-0.1-0.9-0.2-1.3-0.2c-0.8,0-1.3,0.2-1.7,0.7c-0.4,0.4-0.5,1-0.5,1.6
			s0.2,1.2,0.7,1.7c0.4,0.5,1,0.7,1.8,0.7C147.4,413.2,147.9,413.2,148.5,413z"/>
		<path class="st0" d="M162.2,414.2h-1.6c0-1.1,0.1-2.1,0.1-3h-2.8c0,0.8,0,1.7,0.1,3h-1.6c0-1.1,0.1-2.3,0.1-3.5
			c0-1.2,0-2.3-0.1-3.2h1.6c0,1-0.1,1.9-0.1,2.7h2.8c0-0.7,0-1.6-0.1-2.7h1.6c-0.1,0.9-0.1,1.9-0.1,3.2
			C162.1,412,162.2,413.2,162.2,414.2z"/>
		<path class="st0" d="M172.2,414.2h-1.6c0-1.1,0.1-2.2,0.1-3.5c0-1.3,0-2.3-0.1-3.2h1.6c0,0.9-0.1,1.9-0.1,3.2
			C172.1,412,172.1,413.2,172.2,414.2z"/>
		<path class="st0" d="M185.6,407.5v1.1c-0.7-0.1-1.4-0.1-2.1-0.1c0,0.7,0,1.4,0,2.2c0,1.2,0,2.4,0.1,3.5H182c0-1.1,0.1-2.3,0.1-3.5
			c0-0.8,0-1.5,0-2.2c-0.5,0-1.2,0-2.1,0.1v-1.1H185.6z"/>
		<path class="st0" d="M198.1,413.1v1.1h-4.7c0-1,0.1-2.2,0.1-3.5c0-1.3,0-2.3-0.1-3.2h4.5l-0.1,1.1c-1.1-0.1-2.1-0.1-3-0.1
			c0,0.5,0.1,1,0.1,1.7c0.8,0,1.6,0,2.5-0.1v1.2c-0.9,0-1.7-0.1-2.5-0.1c0,0.7,0,1.4,0,2C195.9,413.2,197,413.2,198.1,413.1z"/>
		<path class="st0" d="M211.3,413l-0.1,1.2c-0.5,0.1-1,0.2-1.6,0.2c-1.3,0-2.2-0.3-2.9-1c-0.7-0.7-1-1.4-1-2.4s0.4-1.8,1.1-2.5
			c0.7-0.7,1.7-1.1,2.9-1.1c0.5,0,0.9,0,1.3,0.1l-0.2,1.2c-0.4-0.1-0.9-0.2-1.3-0.2c-0.8,0-1.3,0.2-1.7,0.7c-0.4,0.4-0.5,1-0.5,1.6
			s0.2,1.2,0.7,1.7c0.4,0.5,1,0.7,1.8,0.7C210.3,413.2,210.8,413.2,211.3,413z"/>
		<path class="st0" d="M224.3,407.5v1.1c-0.7-0.1-1.4-0.1-2.1-0.1c0,0.7,0,1.4,0,2.2c0,1.2,0,2.4,0.1,3.5h-1.6
			c0-1.1,0.1-2.3,0.1-3.5c0-0.8,0-1.5,0-2.2c-0.5,0-1.2,0-2.1,0.1v-1.1H224.3z"/>
		<path class="st0" d="M236.7,412.4c0,1.3-1,2-3.1,2c-0.7,0-1.4-0.1-2-0.2l0.3-1.2c0.6,0.2,1.2,0.3,1.7,0.3c0.6,0,1-0.1,1.3-0.2
			c0.3-0.1,0.4-0.3,0.4-0.5c0-0.3-0.1-0.5-0.4-0.7c-0.2-0.2-0.6-0.4-1.3-0.6c-0.6-0.2-1-0.5-1.3-0.8c-0.4-0.3-0.5-0.8-0.5-1.3
			c0-0.6,0.2-1.1,0.7-1.4s1.1-0.5,2-0.5c0.7,0,1.3,0.1,1.8,0.2l-0.2,1.1c-0.5-0.2-1-0.3-1.6-0.3c-0.9,0-1.3,0.2-1.3,0.7
			c0,0.2,0.1,0.4,0.3,0.6c0.2,0.1,0.6,0.3,1.2,0.5c0.6,0.2,1.1,0.5,1.4,0.8C236.5,411.4,236.7,411.8,236.7,412.4z"/>
		<path class="st0" d="M259.7,413.1v1.1H255c0-1,0.1-2.2,0.1-3.5c0-1.3,0-2.3-0.1-3.2h4.5l-0.1,1.1c-1.1-0.1-2.1-0.1-3-0.1
			c0,0.5,0.1,1,0.1,1.7c0.8,0,1.6,0,2.5-0.1v1.2c-0.9,0-1.7-0.1-2.5-0.1c0,0.7,0,1.4,0,2C257.4,413.2,258.5,413.2,259.7,413.1z"/>
		<path class="st0" d="M273.6,414.2h-1.4c0-0.1-0.5-0.9-1.5-2.2c-1.1-1.4-1.7-2.4-1.8-2.9h-0.1c0.1,0.8,0.1,1.4,0.1,2
			c0,0.8,0,1.9,0.1,3.1h-1.4c0.1-1.1,0.1-2.2,0.1-3.5c0-1.3,0-2.3-0.1-3.2h1.6c0,0.2,0.5,0.9,1.4,2.2c1,1.4,1.5,2.3,1.7,2.8h0.1
			c-0.1-0.8-0.1-1.5-0.1-2.1c0-0.9,0-1.9-0.1-2.9h1.4c-0.1,0.9-0.1,1.9-0.1,3.2C273.6,412,273.6,413.2,273.6,414.2z"/>
		<path class="st0" d="M287.7,414.1c-0.9,0.2-1.6,0.3-2.2,0.3c-1.3,0-2.2-0.3-2.9-1c-0.7-0.6-1-1.4-1-2.4s0.4-1.8,1.1-2.5
			c0.7-0.7,1.7-1.1,3-1.1c0.6,0,1.1,0,1.6,0.1l-0.2,1.2c-0.6-0.1-1.1-0.2-1.6-0.2c-0.8,0-1.4,0.2-1.7,0.7c-0.4,0.4-0.6,1-0.6,1.6
			c0,0.7,0.2,1.2,0.6,1.7s1,0.7,1.8,0.7c0.2,0,0.5,0,0.7-0.1c-0.1-0.4-0.1-0.8-0.1-1.1c0-0.4,0-0.8-0.1-1.3h1.6c0,0.5,0,1.1,0,1.6
			C287.7,412.9,287.7,413.4,287.7,414.1z"/>
		<path class="st0" d="M297.5,414.2h-1.6c0-1.1,0.1-2.2,0.1-3.5c0-1.3,0-2.3-0.1-3.2h1.6c0,0.9-0.1,1.9-0.1,3.2
			C297.4,412,297.4,413.2,297.5,414.2z"/>
		<path class="st0" d="M311.8,414.2h-1.4c0-0.1-0.5-0.9-1.5-2.2c-1.1-1.4-1.7-2.4-1.8-2.9H307c0.1,0.8,0.1,1.4,0.1,2
			c0,0.8,0,1.9,0.1,3.1h-1.4c0.1-1.1,0.1-2.2,0.1-3.5c0-1.3,0-2.3-0.1-3.2h1.6c0,0.2,0.5,0.9,1.4,2.2c1,1.4,1.5,2.3,1.7,2.8h0.1
			c-0.1-0.8-0.1-1.5-0.1-2.1c0-0.9,0-1.9-0.1-2.9h1.4c-0.1,0.9-0.1,1.9-0.1,3.2C311.7,412,311.7,413.2,311.8,414.2z"/>
		<path class="st0" d="M325,413.1v1.1h-4.7c0-1,0.1-2.2,0.1-3.5c0-1.3,0-2.3-0.1-3.2h4.5l-0.1,1.1c-1.1-0.1-2.1-0.1-3-0.1
			c0,0.5,0.1,1,0.1,1.7c0.8,0,1.6,0,2.5-0.1v1.2c-0.9,0-1.7-0.1-2.5-0.1c0,0.7,0,1.4,0,2C322.7,413.2,323.8,413.2,325,413.1z"/>
		<path class="st0" d="M337.7,413.1v1.1H333c0-1,0.1-2.2,0.1-3.5c0-1.3,0-2.3-0.1-3.2h4.5l-0.1,1.1c-1.1-0.1-2.1-0.1-3-0.1
			c0,0.5,0.1,1,0.1,1.7c0.8,0,1.6,0,2.5-0.1v1.2c-0.9,0-1.7-0.1-2.5-0.1c0,0.7,0,1.4,0,2C335.5,413.2,336.6,413.2,337.7,413.1z"/>
		<path class="st0" d="M351.6,414.2H350c-0.4-1.2-0.8-2-1-2.3c-0.2-0.3-0.6-0.4-1.1-0.4c-0.2,0-0.4,0-0.6,0c0,0.9,0,1.8,0,2.7h-1.5
			c0-1,0.1-2.2,0.1-3.5c0-1.3,0-2.3-0.1-3.2h1c0.1,0,0.3,0,0.7,0s0.7,0,1,0c1.7,0,2.5,0.5,2.5,1.6c0,0.9-0.5,1.5-1.5,1.8v0.1
			c0.4,0.1,0.7,0.4,1,0.8S351.1,413.1,351.6,414.2z M349.5,409.5c0-0.7-0.5-1-1.4-1c-0.3,0-0.7,0-0.9,0.1c0,0.5,0.1,1.2,0.1,2.1
			c0.2,0,0.4,0,0.5,0C349,410.6,349.5,410.3,349.5,409.5z"/>
		<path class="st0" d="M364.1,412.4c0,1.3-1,2-3.1,2c-0.7,0-1.4-0.1-2-0.2l0.3-1.2c0.6,0.2,1.2,0.3,1.7,0.3c0.6,0,1-0.1,1.3-0.2
			c0.3-0.1,0.4-0.3,0.4-0.5c0-0.3-0.1-0.5-0.4-0.7c-0.2-0.2-0.6-0.4-1.3-0.6c-0.6-0.2-1-0.5-1.3-0.8c-0.4-0.3-0.5-0.8-0.5-1.3
			c0-0.6,0.2-1.1,0.7-1.4s1.1-0.5,2-0.5c0.7,0,1.3,0.1,1.8,0.2l-0.2,1.1c-0.5-0.2-1-0.3-1.6-0.3c-0.9,0-1.3,0.2-1.3,0.7
			c0,0.2,0.1,0.4,0.3,0.6c0.2,0.1,0.6,0.3,1.2,0.5c0.6,0.2,1.1,0.5,1.4,0.8C363.8,411.4,364.1,411.8,364.1,412.4z"/>
	</g>
</g>
</svg>
