<?xml version="1.0" encoding="utf-8"?>
<!-- Generator: Adobe Illustrator 19.1.0, SVG Export Plug-In . SVG Version: 6.00 Build 0)  -->
<svg version="1.1" id="Layer_1" xmlns="http://www.w3.org/2000/svg" xmlns:xlink="http://www.w3.org/1999/xlink" x="0px" y="0px"
	 viewBox="0 0 108.5 92.7" style="enable-background:new 0 0 108.5 92.7;" xml:space="preserve">
<style type="text/css">
	.st0{fill:#FFFFFF;}
</style>
<g>
	<path class="st0" d="M45.9,6.7c-1.1,0-2.1,0.4-2.9,1.2L21.2,29.7H4.2c-1.1,0-2.1,0.4-2.9,1.2S0,32.7,0,33.8v25
		C0,60,0.4,61,1.2,61.8C2.1,62.6,3,63,4.2,63h17.1L43,84.7c0.8,0.8,1.8,1.2,2.9,1.2s2.1-0.4,2.9-1.2c0.8-0.8,1.2-1.8,1.2-2.9V10.9
		c0-1.1-0.4-2.1-1.2-2.9C48,7.1,47,6.7,45.9,6.7L45.9,6.7z M45.9,6.7"/>
	<path class="st0" d="M72.3,55.6c1.8-2.8,2.8-5.9,2.8-9.2c0-3.3-0.9-6.4-2.8-9.3C70.5,34.2,68,32.2,65,31c-0.4-0.2-1-0.3-1.6-0.3
		c-1.1,0-2.1,0.4-2.9,1.2c-0.8,0.8-1.2,1.8-1.2,3c0,0.9,0.3,1.7,0.8,2.3c0.5,0.6,1.2,1.2,1.9,1.6c0.7,0.5,1.5,1,2.2,1.5
		c0.7,0.5,1.4,1.3,1.9,2.3c0.5,1,0.8,2.2,0.8,3.7c0,1.5-0.3,2.7-0.8,3.7c-0.5,1-1.2,1.8-1.9,2.3c-0.7,0.5-1.5,1-2.2,1.5
		c-0.7,0.5-1.4,1-1.9,1.6c-0.5,0.6-0.8,1.4-0.8,2.3c0,1.2,0.4,2.2,1.2,3c0.8,0.8,1.8,1.2,2.9,1.2c0.6,0,1.2-0.1,1.6-0.3
		C68,60.4,70.5,58.4,72.3,55.6L72.3,55.6z M72.3,55.6"/>
	<path class="st0" d="M86.2,64.8c3.7-5.6,5.5-11.8,5.5-18.4c0-6.6-1.8-12.8-5.5-18.4c-3.7-5.6-8.6-9.7-14.7-12.3
		c-0.6-0.2-1.1-0.3-1.7-0.3c-1.1,0-2.1,0.4-2.9,1.2c-0.8,0.8-1.2,1.8-1.2,2.9c0,1.7,0.8,3,2.5,3.8c2.4,1.3,4.1,2.2,5,2.9
		c3.2,2.3,5.7,5.3,7.5,8.8c1.8,3.5,2.7,7.3,2.7,11.3s-0.9,7.8-2.7,11.3c-1.8,3.5-4.3,6.5-7.5,8.8c-0.9,0.7-2.5,1.6-5,2.9
		c-1.7,0.9-2.5,2.2-2.5,3.8c0,1.1,0.4,2.1,1.2,2.9c0.8,0.8,1.8,1.2,3,1.2c0.5,0,1.1-0.1,1.6-0.3C77.6,74.5,82.5,70.4,86.2,64.8
		L86.2,64.8z M86.2,64.8"/>
	<path class="st0" d="M100.2,18.8c-5.5-8.4-12.9-14.5-22-18.5C77.6,0.1,77,0,76.5,0c-1.1,0-2.1,0.4-2.9,1.2
		c-0.8,0.8-1.2,1.8-1.2,2.9c0,1.6,0.8,2.8,2.5,3.8c0.3,0.2,0.8,0.4,1.5,0.7C77,9,77.5,9.2,77.8,9.4c2,1.1,3.8,2.2,5.3,3.3
		c5.3,4,9.5,8.9,12.5,14.8c3,5.9,4.5,12.2,4.5,18.8c0,6.7-1.5,12.9-4.5,18.8c-3,5.9-7.2,10.8-12.5,14.8c-1.6,1.1-3.3,2.2-5.3,3.3
		c-0.3,0.2-0.8,0.4-1.5,0.7c-0.7,0.3-1.2,0.5-1.5,0.7c-1.7,1-2.5,2.3-2.5,3.8c0,1.1,0.4,2.1,1.2,2.9c0.8,0.8,1.8,1.2,2.9,1.2
		c0.6,0,1.1-0.1,1.7-0.3c9.2-4,16.5-10.1,22-18.5c5.5-8.4,8.3-17.5,8.3-27.5C108.5,36.3,105.7,27.2,100.2,18.8L100.2,18.8z
		 M100.2,18.8"/>
</g>
</svg>
