<?xml version="1.0" encoding="utf-8"?>
<!-- Generator: Adobe Illustrator 19.1.0, SVG Export Plug-In . SVG Version: 6.00 Build 0)  -->
<svg version="1.1" id="Layer_1" xmlns="http://www.w3.org/2000/svg" xmlns:xlink="http://www.w3.org/1999/xlink" x="0px" y="0px"
	 viewBox="-298 385.2 13.7 22.8" style="enable-background:new -298 385.2 13.7 22.8;" xml:space="preserve">
<style type="text/css">
	.st0{fill:#2A3F94;}
	.st1{fill:#212760;}
</style>
<path class="st0" d="M-285.5,398.5c-0.1-0.4-0.2-0.7-0.4-1.1c0,0,0-0.1,0-0.1c-0.1-0.2-0.2-0.3-0.3-0.5c-0.3-0.6-0.8-1.1-1.3-1.5
	c-0.6-0.5-1.3-0.8-2-0.9c-0.5,0-1-0.1-1.4,0c-0.6,0-1.2,0.1-1.7,0.4c-1,0.5-1.8,1.4-2.2,2.4c-0.2,0.5-0.3,1-0.4,1.5
	c0,0.5,0,0.9,0.2,1.4c0.2,0.9,0.7,1.6,1.6,2.2c0.7,0.4,1.3,0.7,2.1,0.8c0.3,0,0.7,0,1,0c0.7-0.1,1.4-0.4,1.9-0.9
	c0.6-0.4,1-1,1.2-1.7c0.2-0.6,0.2-1.2,0.1-1.9c-0.1-0.2-0.2-0.5-0.3-0.7c0-0.1-0.1-0.3-0.2-0.4c0,0,0-0.1,0-0.1
	c-0.1-0.2-0.2-0.3-0.4-0.5c-0.3-0.4-0.7-0.7-1.2-0.9c-0.7-0.3-1.3-0.4-2-0.3c-0.6,0.1-1.1,0.3-1.6,0.7c-0.7,0.5-1.1,1.2-1.1,2.1
	c-0.1,0.9,0.2,1.7,0.8,2.3c0.3,0.4,0.7,0.6,1.1,0.7c0.2,0.1,0.4,0.1,0.6,0.2c0.5,0.1,1.1,0,1.6-0.3c1-0.5,1.3-1.5,1.1-2.4
	c-0.1-0.2-0.2-0.4-0.3-0.6c-0.3-0.5-0.7-0.8-1.2-1c-0.9-0.3-1.9,0-2.3,0.9c-0.2,0.4-0.2,0.8,0,1.2c0.1,0.1,0.1,0.1,0.2,0.2
	c0.3,0.5,0.8,0.7,1.3,0.6c0.1,0,0.2-0.1,0.3-0.1c0.4-0.2,0.6-0.7,0.5-1.2c-0.2-0.4-0.5-0.5-0.8-0.3c-0.1,0-0.3,0.1-0.4,0.2
	c-0.1,0.1-0.1,0.3,0,0.5c0.1,0.1,0.1,0.1,0.2,0.2c0.1,0.1,0.2,0.1,0.3,0c0.1,0,0.2-0.1,0.2-0.3c-0.1-0.1-0.2-0.2-0.3-0.2
	c0,0-0.1,0-0.2,0c0-0.1,0-0.2,0-0.2c0,0,0,0,0,0c0.2-0.1,0.4-0.1,0.5,0.1c0.1,0.2,0.1,0.5,0,0.8c0,0-0.1,0.1-0.2,0.1
	c-0.2,0.1-0.5,0.1-0.7,0c-0.5-0.2-0.8-0.5-0.7-1c0-0.4,0.2-0.7,0.5-0.9c0.1-0.1,0.1-0.1,0.2-0.2c0.8-0.3,1.7,0,2.2,0.6
	c0.1,0.2,0.2,0.4,0.3,0.6c0,0.2,0.1,0.4,0.1,0.7c0,0.4-0.2,0.7-0.4,1c-0.6,0.6-1.4,0.8-2.3,0.6c-0.6-0.1-1-0.5-1.3-0.9
	c-0.2-0.3-0.3-0.6-0.4-0.9c-0.1-0.4-0.1-0.9,0-1.4c0-0.1,0.1-0.3,0.1-0.4c0,0,0,0,0,0c0.2-0.4,0.5-0.7,0.8-1
	c0.3-0.3,0.7-0.5,1.1-0.6c0.6-0.2,1.1-0.2,1.7,0c0.6,0.1,1.2,0.5,1.6,1c0.2,0.2,0.3,0.4,0.4,0.6c0.3,0.6,0.3,1.4,0.2,2.1
	c-0.2,0.9-0.7,1.6-1.4,2.2c-0.5,0.4-1,0.6-1.7,0.6c-0.6,0-1.1,0-1.7-0.2c-1.2-0.4-2-1.2-2.4-2.4c-0.1-0.4-0.2-0.8-0.2-1.3
	c0-0.4,0.1-0.9,0.3-1.3c0.2-0.6,0.6-1.1,1-1.5c0.4-0.4,0.9-0.8,1.5-1c0.1-0.1,0.3-0.1,0.4-0.1c0.4-0.1,0.7-0.1,1.1-0.2
	c0.5,0,1.1,0,1.6,0.2c0.8,0.3,1.4,0.7,2,1.3c0.9,1,1.4,2.2,1.4,3.5c0,0.8-0.2,1.6-0.6,2.3c-0.4,0.8-1,1.4-1.7,1.9
	c-0.9,0.6-1.8,0.9-2.9,0.9c-0.9,0-1.7-0.1-2.5-0.5c-0.7-0.3-1.2-0.8-1.7-1.3c-0.2-0.2-0.4-0.5-0.5-0.8c-0.5-0.9-0.8-1.8-0.8-2.8
	c0-0.8,0.2-1.6,0.5-2.3c0.4-0.9,1-1.8,1.7-2.5c0.7-0.7,1.4-1.4,2.1-2c0.5-0.5,1-1,1.5-1.6c0.6-0.9,1-1.8,0.9-2.9
	c0-0.3-0.1-0.6-0.2-0.8c-0.1-0.2-0.3-0.4-0.5-0.6c-0.7-0.6-1.6-1.1-2.5-1.5c-0.1,0-0.2,0-0.2,0.1c0,0,0,0.1,0.1,0.1
	c0.2,0.1,0.3,0.2,0.5,0.3c0.5,0.3,1.1,0.6,1.6,1c0.4,0.3,0.7,0.6,0.8,1.1s0,0.9,0,1.3c-0.2,0.5-0.4,1.1-0.7,1.6
	c-0.4,0.6-1,1.1-1.5,1.6c-0.6,0.6-1.2,1.2-1.8,1.8c-0.8,0.8-1.5,1.7-2,2.7c-0.5,1-0.7,1.9-0.6,2.9c0,0.1,0,0.2,0,0.3
	c0,0,0,0.1,0,0.1c0,0.6,0.2,1.1,0.4,1.6c0,0.1,0.1,0.2,0.2,0.4c0,0,0,0.1,0,0.1c0,0,0,0,0,0c0,0.1,0.1,0.1,0.1,0.2
	c0.5,0.9,1.2,1.7,2.2,2.2c0.8,0.4,1.6,0.7,2.5,0.7c0.8,0,1.6-0.1,2.3-0.4c0.6-0.2,1.1-0.5,1.6-0.9c0.7-0.5,1.2-1.2,1.6-2
	c0.2-0.6,0.4-1.2,0.4-1.8C-285.3,399.6-285.3,399-285.5,398.5z"/>
<g>
	<path class="st1" d="M-291.3,406.2c0,0.3,0,0.6,0,0.8c0,0.3,0,0.6,0,0.9c0-0.3,0-0.6,0-0.9C-291.3,406.7-291.3,406.4-291.3,406.2z"
		/>
	<path class="st1" d="M-289.1,406.6v-0.1c0-0.1,0-0.2,0-0.3s0-0.1-0.1-0.1c-0.1,0-0.1,0-0.1,0.1v0.1c0,0.1,0,0.3,0,0.4
		c-0.1,0.1-0.2,0.1-0.3,0.1c-0.3,0.1-0.6,0.2-1,0.3c0-0.3,0-0.6,0-0.9c0-0.1,0-0.1-0.1-0.1c-0.1,0-0.1,0.1-0.1,0.1
		c0,0.6,0,1.1,0,1.7c0,0.1,0,0.1,0.1,0.1c0.1,0,0.1-0.1,0.1-0.1c0-0.2,0-0.4,0-0.6c0,0,0-0.1,0.1-0.1c0.4-0.1,0.7-0.2,1.1-0.3h0.1
		c0,0.1,0,0.1,0,0.1c0,0.3,0,0.6,0,0.9c0,0.1,0,0.1,0.1,0.1c0.1,0,0.1,0,0.1-0.1c0-0.2,0-0.3,0-0.5
		C-289.1,407.2-289.2,406.9-289.1,406.6C-289.1,406.7-289.1,406.7-289.1,406.6z"/>
	<path class="st1" d="M-294,406.5c0-0.1,0-0.2,0-0.3s0-0.1-0.1-0.1s-0.1,0-0.1,0.1s0,0.3,0,0.4s0,0.1-0.1,0.1
		c-0.4,0.1-0.7,0.2-1.1,0.3h-0.1c0-0.1,0-0.1,0-0.1c0-0.3,0-0.5,0-0.8c0-0.1,0-0.1-0.1-0.1s-0.1,0-0.1,0.1c0,0.6,0,1.2,0,1.7
		c0,0.1,0,0.1,0.1,0.1s0.1-0.1,0.1-0.1c0-0.2,0-0.4,0-0.5s0-0.1,0.1-0.1c0.3-0.1,0.5-0.2,0.8-0.3c0.1,0,0.3-0.1,0.4-0.1
		c0,0.1,0,0.1,0,0.1c0,0.3,0,0.6,0,0.9c0,0.1,0,0.1,0.1,0.1s0.1,0,0.1-0.1c0-0.2,0-0.5,0-0.7c0-0.2,0-0.3,0-0.5
		C-294,406.6-294,406.6-294,406.5C-294,406.6-294,406.5-294,406.5z"/>
	<path class="st1" d="M-292.2,406.1c-0.2,0-0.4,0-0.6,0.1c-0.2,0-0.4,0.1-0.6,0.2c0-0.1,0-0.2,0-0.3s0-0.1-0.1-0.1s-0.1,0.1-0.1,0.1
		c0,0.3,0,0.5,0,0.8c0,0.3,0,0.6,0,0.9c0,0.1,0.1,0.1,0.1,0.1l0.1-0.1c0-0.2,0-0.5,0-0.7c0.1,0,0.2,0,0.3,0c0.3,0,0.7-0.1,0.9-0.3
		c0.1-0.1,0.2-0.2,0.3-0.3C-291.8,406.3-291.9,406.1-292.2,406.1z M-292.1,406.5c-0.1,0.1-0.1,0.2-0.2,0.2c-0.3,0.2-0.7,0.3-1,0.3
		c0-0.3,0-0.3,0.2-0.4c0.2-0.1,0.5-0.2,0.8-0.3h0.1C-292.1,406.2-292,406.3-292.1,406.5z"/>
	<path class="st1" d="M-287.3,406.8c-0.1-0.2-0.2-0.4-0.4-0.6c-0.1-0.1-0.2-0.1-0.2,0c-0.4,0.6-0.7,1.2-1.1,1.8
		c-0.1,0.1,0,0.1,0.1,0.1c0,0,0.1,0,0.1-0.1c0.1-0.1,0.2-0.2,0.2-0.4c0.1-0.1,0.1-0.3,0.3-0.3c0.2,0,0.5-0.1,0.7-0.2
		c0.1,0,0.1,0,0.2,0.1c0.1,0.3,0.3,0.5,0.4,0.8l0.1,0.1c0.1,0,0.2,0,0.1-0.1C-286.9,407.5-287.1,407.1-287.3,406.8z M-288.2,407.1
		L-288.2,407.1c0.1-0.3,0.3-0.6,0.5-0.8c0.1,0.2,0.2,0.4,0.3,0.6C-287.7,407-287.9,407.1-288.2,407.1z"/>
	<path class="st1" d="M-285.1,406.1c-0.1,0-0.3,0-0.4,0c-0.3,0.1-0.5,0.2-0.8,0.3c0-0.1,0-0.2,0-0.2c0-0.1,0-0.2-0.1-0.2
		s-0.1,0.1-0.1,0.2c0,0.2,0,0.5,0,0.7c0,0.3,0,0.6,0,1c0,0.1,0,0.1,0.1,0.1s0.1-0.1,0.1-0.1c0-0.1,0-0.3,0-0.4c0-0.3,0-0.3,0.3-0.4
		c0.3,0,0.7-0.1,1-0.3c0.1-0.1,0.2-0.2,0.2-0.3C-284.8,406.3-284.9,406.1-285.1,406.1z M-285.1,406.5c-0.1,0.1-0.3,0.2-0.4,0.3
		c-0.3,0.1-0.6,0.2-0.8,0.1c0-0.3,0-0.3,0.2-0.4c0.3-0.1,0.5-0.2,0.8-0.3h0.1c0.1,0,0.2,0,0.2,0.1
		C-285.1,406.3-285.1,406.5-285.1,406.5z"/>
	<path class="st1" d="M-296.2,406.8c-0.3,0-0.6,0-1,0c-0.1,0-0.3,0-0.4,0c0.1-0.2,0.2-0.3,0.3-0.4c0.3-0.2,0.6-0.2,1-0.2
		c0.1,0,0.2,0,0.1-0.2c-0.2,0-0.3,0-0.5,0c-0.4,0.1-0.7,0.2-1,0.5c-0.1,0.1-0.2,0.2-0.1,0.3c0,0.1,0.2,0.1,0.3,0.1
		c0.2,0,0.3,0,0.5,0s0.5,0,0.7,0c0.2,0,0.3,0.2,0.1,0.3c-0.1,0.1-0.1,0.1-0.2,0.2c-0.1,0.1-0.3,0.2-0.5,0.2
		c-0.3,0.1-0.6,0.1-0.9,0.2c0,0.1,0,0.1,0.1,0.1c0.3-0.1,0.5-0.1,0.8-0.2c0.3-0.1,0.5-0.2,0.7-0.4c0.1-0.1,0.2-0.3,0.1-0.4
		C-295.9,406.9-296.1,406.8-296.2,406.8z"/>
	<path class="st1" d="M-291.3,406.2c0-0.1,0-0.1-0.1-0.1s-0.1,0.1-0.1,0.1c0,0.6,0,1.1,0,1.7c0,0.1,0,0.1,0.1,0.1s0.1-0.1,0.1-0.1
		c0-0.3,0-0.6,0-0.9C-291.3,406.7-291.3,406.4-291.3,406.2z"/>
	<path class="st1" d="M-284.3,407L-284.3,407c0-0.3,0-0.6,0-0.9c0-0.1,0-0.1-0.1-0.1s-0.1,0.1-0.1,0.1c0,0.6,0,1.2,0,1.7
		c0,0.1,0,0.1,0.1,0.1s0.1-0.1,0.1-0.1C-284.3,407.6-284.3,407.3-284.3,407z"/>
	<path class="st1" d="M-284.9,407.8c-0.1-0.1-0.3-0.1-0.4-0.2c-0.3-0.1-0.5-0.3-0.8-0.4c-0.1,0-0.1,0-0.1,0s0,0.1,0.1,0.1
		c0.3,0.2,0.6,0.3,0.9,0.5c0.1,0,0.2,0.1,0.3,0.1l0.1-0.1C-284.9,407.9-284.9,407.8-284.9,407.8z"/>
	<path class="st1" d="M-292,407.8c-0.2-0.1-0.3-0.1-0.5-0.2s-0.4-0.2-0.6-0.4c-0.1,0-0.1,0-0.1,0s0,0.1,0.1,0.1
		c0.3,0.2,0.7,0.4,1,0.5c0.1,0,0.2,0.1,0.2,0.1l0.1-0.1C-291.9,407.9-291.9,407.8-292,407.8z"/>
</g>
</svg>
