<?xml version="1.0" encoding="utf-8"?>
<!-- Generator: Adobe Illustrator 19.1.0, SVG Export Plug-In . SVG Version: 6.00 Build 0)  -->
<svg version="1.1" id="Layer_1" xmlns="http://www.w3.org/2000/svg" xmlns:xlink="http://www.w3.org/1999/xlink" x="0px" y="0px"
	 viewBox="0 0 108.5 92.7" style="enable-background:new 0 0 108.5 92.7;" xml:space="preserve">
<style type="text/css">
	.st0{fill:#FFFFFF;}
</style>
<g>
	<path class="st0" d="M86.5,46.3l12.2-12.2c1.8-1.8,1.8-4.6,0-6.4c-1.8-1.8-4.6-1.8-6.4,0L80.1,40L67.9,27.8c-1.8-1.8-4.6-1.8-6.4,0
		c-1.8,1.8-1.8,4.6,0,6.4l12.2,12.2L61.6,58.5c-1.8,1.8-1.8,4.6,0,6.4c0.9,0.9,2,1.3,3.2,1.3s2.3-0.4,3.2-1.3l12.2-12.2l12.2,12.2
		c0.9,0.9,2,1.3,3.2,1.3s2.3-0.4,3.2-1.3c1.8-1.8,1.8-4.6,0-6.4L86.5,46.3z"/>
</g>
<g>
	<path d="M296.9,167.7c-1.1,0-2.1,0.4-2.9,1.2l-21.7,21.7h-17.1c-1.1,0-2.1,0.4-2.9,1.2s-1.2,1.8-1.2,2.9v25c0,1.1,0.4,2.1,1.2,2.9
		c0.8,0.8,1.8,1.2,2.9,1.2h17.1l21.7,21.7c0.8,0.8,1.8,1.2,2.9,1.2s2.1-0.4,2.9-1.2c0.8-0.8,1.2-1.8,1.2-2.9v-70.9
		c0-1.1-0.4-2.1-1.2-2.9C299,168.1,298,167.7,296.9,167.7L296.9,167.7z M296.9,167.7"/>
	<path d="M323.3,216.6c1.8-2.8,2.8-5.9,2.8-9.2c0-3.3-0.9-6.4-2.8-9.3c-1.8-2.9-4.3-4.9-7.3-6.1c-0.4-0.2-1-0.3-1.6-0.3
		c-1.1,0-2.1,0.4-2.9,1.2c-0.8,0.8-1.2,1.8-1.2,3c0,0.9,0.3,1.7,0.8,2.3c0.5,0.6,1.2,1.2,1.9,1.6c0.7,0.5,1.5,1,2.2,1.5
		c0.7,0.5,1.4,1.3,1.9,2.3c0.5,1,0.8,2.2,0.8,3.7c0,1.5-0.3,2.7-0.8,3.7c-0.5,1-1.2,1.8-1.9,2.3c-0.7,0.5-1.5,1-2.2,1.5
		c-0.7,0.5-1.4,1-1.9,1.6c-0.5,0.6-0.8,1.4-0.8,2.3c0,1.2,0.4,2.2,1.2,3c0.8,0.8,1.8,1.2,2.9,1.2c0.6,0,1.2-0.1,1.6-0.3
		C319,221.4,321.5,219.4,323.3,216.6L323.3,216.6z M323.3,216.6"/>
	<path d="M337.2,225.8c3.7-5.6,5.5-11.8,5.5-18.4c0-6.6-1.8-12.8-5.5-18.4c-3.7-5.6-8.6-9.7-14.7-12.3c-0.6-0.2-1.1-0.3-1.7-0.3
		c-1.1,0-2.1,0.4-2.9,1.2c-0.8,0.8-1.2,1.8-1.2,2.9c0,1.7,0.8,3,2.5,3.8c2.4,1.3,4.1,2.2,5,2.9c3.2,2.3,5.7,5.3,7.5,8.8
		c1.8,3.5,2.7,7.3,2.7,11.3s-0.9,7.8-2.7,11.3c-1.8,3.5-4.3,6.5-7.5,8.8c-0.9,0.7-2.5,1.6-5,2.9c-1.7,0.9-2.5,2.2-2.5,3.8
		c0,1.1,0.4,2.1,1.2,2.9c0.8,0.8,1.8,1.2,3,1.2c0.5,0,1.1-0.1,1.6-0.3C328.6,235.5,333.5,231.4,337.2,225.8L337.2,225.8z
		 M337.2,225.8"/>
	<path d="M351.2,179.8c-5.5-8.4-12.9-14.5-22-18.5c-0.6-0.2-1.1-0.3-1.7-0.3c-1.1,0-2.1,0.4-2.9,1.2c-0.8,0.8-1.2,1.8-1.2,2.9
		c0,1.6,0.8,2.8,2.5,3.8c0.3,0.2,0.8,0.4,1.5,0.7c0.7,0.3,1.2,0.5,1.5,0.7c2,1.1,3.8,2.2,5.3,3.3c5.3,4,9.5,8.9,12.5,14.8
		c3,5.9,4.5,12.2,4.5,18.8c0,6.7-1.5,12.9-4.5,18.8c-3,5.9-7.2,10.8-12.5,14.8c-1.6,1.1-3.3,2.2-5.3,3.3c-0.3,0.2-0.8,0.4-1.5,0.7
		c-0.7,0.3-1.2,0.5-1.5,0.7c-1.7,1-2.5,2.3-2.5,3.8c0,1.1,0.4,2.1,1.2,2.9c0.8,0.8,1.8,1.2,2.9,1.2c0.6,0,1.1-0.1,1.7-0.3
		c9.2-4,16.5-10.1,22-18.5c5.5-8.4,8.3-17.5,8.3-27.5C359.5,197.3,356.7,188.2,351.2,179.8L351.2,179.8z M351.2,179.8"/>
</g>
<g>
	<path class="st0" d="M45.9,6.7c-1.1,0-2.1,0.4-2.9,1.2L21.2,29.7H4.2c-1.1,0-2.1,0.4-2.9,1.2S0,32.7,0,33.8v25
		C0,60,0.4,61,1.2,61.8C2.1,62.6,3,63,4.2,63h17.1L43,84.7c0.8,0.8,1.8,1.2,2.9,1.2s2.1-0.4,2.9-1.2c0.8-0.8,1.2-1.8,1.2-2.9V10.9
		c0-1.1-0.4-2.1-1.2-2.9C48,7.1,47,6.7,45.9,6.7L45.9,6.7z M45.9,6.7"/>
</g>
</svg>
